<?xml version="1.0" standalone="no"?><!DOCTYPE svg PUBLIC "-//W3C//DTD SVG 1.1//EN" "http://www.w3.org/Graphics/SVG/1.1/DTD/svg11.dtd"><svg class="icon" width="200px" height="200.00px" viewBox="0 0 1024 1024" version="1.1" xmlns="http://www.w3.org/2000/svg"><path d="M572.282915 587.416406A293.701506 293.701506 0 0 1 364.586038 86.028148a293.709605 293.709605 0 0 1 415.373506 415.363381 291.777918 291.777918 0 0 1-207.676629 86.024877z m0-523.195671a229.494165 229.494165 0 0 0-162.269829 391.804491 229.502265 229.502265 0 0 0 324.539658-324.590279 227.975543 227.975543 0 0 0-162.269829-67.214212z" fill="#333333" /><path d="M139.617367 1024H75.399902a499.029333 499.029333 0 0 1 499.424174-499.424174v64.217464a434.811868 434.811868 0 0 0-435.206709 435.20671z" fill="#333333" /><path d="M540.158997 773.96394m10.124147 0l388.19017 0q10.124147 0 10.124147 10.124147l0 44.546247q0 10.124147-10.124147 10.124147l-388.19017 0q-10.124147 0-10.124147-10.124147l0-44.546247q0-10.124147 10.124147-10.124147Z" fill="#333333" /><path d="M711.986021 602.136916m10.124147 0l44.546247 0q10.124147 0 10.124147 10.124147l0 388.190171q0 10.124147-10.124147 10.124147l-44.546247 0q-10.124147 0-10.124147-10.124147l0-388.190171q0-10.124147 10.124147-10.124147Z" fill="#333333" /></svg>