<?xml version="1.0" standalone="no"?><!DOCTYPE svg PUBLIC "-//W3C//DTD SVG 1.1//EN" "http://www.w3.org/Graphics/SVG/1.1/DTD/svg11.dtd"><svg class="icon" width="200px" height="200.00px" viewBox="0 0 1024 1024" version="1.1" xmlns="http://www.w3.org/2000/svg"><path d="M789.333333 640H256l42.666667 106.666667h256l44.544 133.653333A85.333333 85.333333 0 0 0 680.170667 938.666667H810.666667a85.333333 85.333333 0 0 0 85.333333-85.333334V640l21.333333-149.333333-77.781333 15.573333a42.666667 42.666667 0 0 0-33.706667 34.816L789.333333 640zM234.666667 384h533.333333l-42.666667-106.666667H469.333333l-44.544-133.653333A85.333333 85.333333 0 0 0 343.829333 85.333333H213.333333a85.333333 85.333333 0 0 0-85.333333 85.333334v213.333333l-21.333333 149.333333 77.781333-15.573333a42.666667 42.666667 0 0 0 33.706667-34.816L234.666667 384z" fill="#333333" /></svg>