<?xml version="1.0" standalone="no"?><!DOCTYPE svg PUBLIC "-//W3C//DTD SVG 1.1//EN" "http://www.w3.org/Graphics/SVG/1.1/DTD/svg11.dtd"><svg class="icon" width="200px" height="200.00px" viewBox="0 0 1024 1024" version="1.1" xmlns="http://www.w3.org/2000/svg"><path d="M0 0m256 0l512 0q256 0 256 256l0 512q0 256-256 256l-512 0q-256 0-256-256l0-512q0-256 256-256Z" fill="#09BB07" /><path d="M417.045333 596.629333a22.890667 22.890667 0 0 1-10.666666 2.453334 23.594667 23.594667 0 0 1-20.821334-12.288l-1.685333-3.242667-65.664-141.162667a10.666667 10.666667 0 0 1-0.810667-4.906666 11.285333 11.285333 0 0 1 11.648-11.498667 13.312 13.312 0 0 1 7.466667 2.453333l77.312 54.165334a40.533333 40.533333 0 0 0 19.925333 5.717333 33.216 33.216 0 0 0 12.458667-2.453333l362.56-159.168a386.304 386.304 0 0 0-293.589333-124.736c-197.866667 0-359.189333 132.117333-359.189334 295.338666a277.589333 277.589333 0 0 0 123.861334 223.061334 24.128 24.128 0 0 1 9.962666 18.88 22.357333 22.357333 0 0 1-1.685333 7.381333c-5.781333 22.122667-15.829333 58.282667-15.829333 59.882667a29.653333 29.653333 0 0 0-1.685334 9.045333 11.285333 11.285333 0 0 0 11.648 11.498667 9.493333 9.493333 0 0 0 6.677334-2.453334l78.122666-45.12a40.064 40.064 0 0 1 19.2-5.717333 46.186667 46.186667 0 0 1 10.666667 1.664 422.72 422.72 0 0 0 117.333333 16.426667c197.866667 0 359.168-132.117333 359.168-295.338667a256.874667 256.874667 0 0 0-40.746666-137.045333l-413.162667 235.413333-2.496 1.664z" fill="#FFFFFF" /></svg>